<svg width="26" height="25" fill="none" xmlns="http://www.w3.org/2000/svg"><path fill-rule="evenodd" clip-rule="evenodd" d="M7.987.075C9.32.014 9.745 0 13.141 0c3.395 0 3.82.015 5.152.075 1.332.06 2.24.273 3.036.58A6.15 6.15 0 0 1 23.543 2.1a6.105 6.105 0 0 1 1.44 2.212c.31.796.521 1.705.583 3.034.061 1.336.075 1.76.075 5.155 0 3.396-.015 3.82-.075 5.153-.06 1.33-.273 2.239-.582 3.035a6.132 6.132 0 0 1-1.441 2.214 6.131 6.131 0 0 1-2.214 1.441c-.795.31-1.704.52-3.034.582-1.334.061-1.759.075-5.154.075-3.396 0-3.82-.015-5.154-.075-1.33-.06-2.238-.273-3.034-.582a6.133 6.133 0 0 1-2.215-1.44 6.128 6.128 0 0 1-1.442-2.214c-.308-.796-.519-1.705-.58-3.035C.654 16.32.64 15.894.64 12.5c0-3.395.014-3.82.075-5.152.06-1.332.272-2.241.58-3.037A6.132 6.132 0 0 1 2.74 2.098 6.127 6.127 0 0 1 4.952.656C5.747.348 6.657.136 7.986.075h.001Zm10.205 2.25c-1.318-.06-1.714-.073-5.051-.073-3.338 0-3.733.013-5.052.073-1.219.056-1.88.26-2.321.43-.583.228-1 .497-1.438.935a3.877 3.877 0 0 0-.934 1.437c-.171.441-.375 1.103-.43 2.322-.06 1.318-.073 1.713-.073 5.051s.012 3.733.073 5.051c.055 1.22.259 1.88.43 2.322.2.542.52 1.034.934 1.437a3.88 3.88 0 0 0 1.438.934c.44.172 1.102.375 2.321.431 1.319.06 1.713.073 5.052.073 3.338 0 3.733-.013 5.05-.073 1.22-.056 1.881-.26 2.322-.43.583-.228 1-.497 1.438-.935a3.88 3.88 0 0 0 .934-1.437c.171-.441.375-1.103.43-2.322.06-1.318.073-1.713.073-5.051s-.012-3.733-.072-5.051c-.056-1.22-.26-1.88-.431-2.322a3.88 3.88 0 0 0-.934-1.437 3.879 3.879 0 0 0-1.438-.934c-.44-.172-1.102-.375-2.321-.431Zm-6.648 14.028a4.169 4.169 0 0 0 4.546-6.802 4.17 4.17 0 1 0-4.546 6.802ZM8.597 7.957a6.425 6.425 0 1 1 9.087 9.086 6.425 6.425 0 0 1-9.087-9.086Zm12.394-.925a1.52 1.52 0 1 0-2.085-2.21 1.52 1.52 0 0 0 2.085 2.21Z" fill="#fff"/></svg>