<svg width="20" height="32" viewBox="0 0 20 32" fill="none" xmlns="http://www.w3.org/2000/svg">
<path d="M0.764798 0.704369C0.275098 1.15551 0 1.76731 0 2.40523C0 3.04315 0.275098 3.65495 0.764798 4.10609L13.6949 16.0145L0.764798 27.923C0.288977 28.3767 0.025687 28.9844 0.0316385 29.6152C0.0375901 30.2459 0.312306 30.8493 0.796617 31.2954C1.28093 31.7414 1.93608 31.9944 2.62098 31.9999C3.30587 32.0054 3.9657 31.7629 4.45836 31.3247L19.2352 17.7154C19.7249 17.2642 20 16.6524 20 16.0145C20 15.3766 19.7249 14.7648 19.2352 14.3137L4.45836 0.704369C3.96851 0.253362 3.30422 0 2.61158 0C1.91893 0 1.25465 0.253362 0.764798 0.704369Z" fill="#686868"/>
</svg>
