<svg width="26" height="21" fill="none" xmlns="http://www.w3.org/2000/svg"><path d="M25.64 3.051c-.919.392-1.906.656-2.945.776a4.981 4.981 0 0 0 2.255-2.728 10.495 10.495 0 0 1-3.257 1.196A5.197 5.197 0 0 0 18.783.8a5.312 5.312 0 0 0-3.256.518 5.016 5.016 0 0 0-2.254 2.317c-.465.99-.578 2.1-.32 3.157a15.03 15.03 0 0 1-5.855-1.496A14.474 14.474 0 0 1 2.38 1.641a4.78 4.78 0 0 0-.088 4.804A5.007 5.007 0 0 0 3.97 8.222a5.276 5.276 0 0 1-2.323-.617v.064c0 1.138.41 2.241 1.16 3.122a5.17 5.17 0 0 0 2.954 1.711 5.37 5.37 0 0 1-2.316.085c.327.98.965 1.836 1.825 2.45.859.613 1.896.953 2.967.972a10.562 10.562 0 0 1-6.371 2.11c-.41 0-.818-.022-1.224-.068a14.938 14.938 0 0 0 7.861 2.215c9.436 0 14.594-7.51 14.594-14.025 0-.211-.005-.425-.015-.637a10.21 10.21 0 0 0 2.557-2.55l.003-.003Z" fill="#fff"/></svg>