<svg width="26" height="25" fill="none" xmlns="http://www.w3.org/2000/svg"><path fill-rule="evenodd" clip-rule="evenodd" d="M18.869 14.981c-.312-.155-1.842-.903-2.126-1.007-.285-.103-.492-.154-.7.156-.208.309-.803 1.006-.984 1.213-.182.207-.364.232-.674.078-.311-.156-1.314-.482-2.502-1.537-.924-.82-1.55-1.834-1.73-2.144-.181-.31-.02-.478.136-.632.14-.138.31-.361.467-.541.156-.181.207-.31.31-.518.105-.206.053-.386-.026-.542-.077-.155-.699-1.679-.958-2.299-.253-.603-.509-.52-.7-.53a13.51 13.51 0 0 0-.596-.011c-.207 0-.544.077-.83.387-.285.31-1.088 1.059-1.088 2.582s1.114 2.995 1.27 3.203c.156.206 2.193 3.333 5.313 4.673.743.32 1.322.51 1.773.652.745.236 1.424.203 1.96.122.596-.088 1.84-.748 2.099-1.471.259-.723.259-1.343.181-1.472-.077-.13-.285-.207-.596-.362Zm-5.675 7.712h-.005c-1.853 0-3.672-.496-5.267-1.436l-.376-.223-3.917 1.023 1.046-3.8-.246-.39a10.236 10.236 0 0 1-1.582-5.478C2.849 6.712 7.49 2.093 13.197 2.093c2.764 0 5.362 1.073 7.315 3.019a10.23 10.23 0 0 1 2.246 3.34c.52 1.25.785 2.59.78 3.944-.001 5.677-4.642 10.297-10.345 10.297Zm8.804-19.06A12.37 12.37 0 0 0 17.961.938 12.419 12.419 0 0 0 13.192 0C6.332 0 .747 5.557.745 12.387a12.312 12.312 0 0 0 1.661 6.193L.641 25l6.598-1.723c1.825.99 3.87 1.508 5.95 1.508h.005c6.86 0 12.444-5.557 12.447-12.388a12.264 12.264 0 0 0-.94-4.745 12.309 12.309 0 0 0-2.703-4.019Z" fill="#fff"/></svg>